<mxfile host="Electron" modified="2024-06-20T14:41:34.614Z" agent="Mozilla/5.0 (X11; Linux x86_64) AppleWebKit/537.36 (KHTML, like Gecko) draw.io/24.5.3 Chrome/124.0.6367.207 Electron/30.0.6 Safari/537.36" etag="OCDtaLfNnSZV2pZT5927" version="24.5.3" type="device" pages="10">
  <diagram name="planning-condensed" id="ntlEKQOA_ElMvQzKZB-_">
    <mxGraphModel dx="1646" dy="488" grid="1" gridSize="10" guides="1" tooltips="1" connect="1" arrows="1" fold="1" page="1" pageScale="1" pageWidth="827" pageHeight="1169" math="0" shadow="0">
      <root>
        <mxCell id="0" />
        <mxCell id="1" parent="0" />
        <mxCell id="LZjEHdl2kUvcbKKKhykF-43" value="16" style="endArrow=none;dashed=1;html=1;rounded=0;opacity=70;verticalAlign=top;labelPosition=center;verticalLabelPosition=bottom;align=center;fontFamily=Arial;" parent="1" edge="1">
          <mxGeometry x="-1" width="50" height="50" relative="1" as="geometry">
            <mxPoint x="619.31" y="200" as="sourcePoint" />
            <mxPoint x="619.31" as="targetPoint" />
            <mxPoint as="offset" />
          </mxGeometry>
        </mxCell>
        <mxCell id="LZjEHdl2kUvcbKKKhykF-38" value="13" style="endArrow=none;dashed=1;html=1;rounded=0;opacity=70;verticalAlign=top;labelPosition=center;verticalLabelPosition=bottom;align=center;fontFamily=Arial;" parent="1" edge="1">
          <mxGeometry x="-1" width="50" height="50" relative="1" as="geometry">
            <mxPoint x="460" y="200" as="sourcePoint" />
            <mxPoint x="460" as="targetPoint" />
            <mxPoint as="offset" />
          </mxGeometry>
        </mxCell>
        <mxCell id="LZjEHdl2kUvcbKKKhykF-34" value="7" style="endArrow=none;dashed=1;html=1;rounded=0;opacity=70;verticalAlign=top;labelPosition=center;verticalLabelPosition=bottom;align=center;fontFamily=Arial;" parent="1" edge="1">
          <mxGeometry x="-1" width="50" height="50" relative="1" as="geometry">
            <mxPoint x="160" y="200" as="sourcePoint" />
            <mxPoint x="160" as="targetPoint" />
            <mxPoint as="offset" />
          </mxGeometry>
        </mxCell>
        <mxCell id="LZjEHdl2kUvcbKKKhykF-35" value="10" style="endArrow=none;dashed=1;html=1;rounded=0;opacity=70;verticalAlign=top;labelPosition=center;verticalLabelPosition=bottom;align=center;fontFamily=Arial;" parent="1" edge="1">
          <mxGeometry x="-1" width="50" height="50" relative="1" as="geometry">
            <mxPoint x="340" y="200" as="sourcePoint" />
            <mxPoint x="340" as="targetPoint" />
            <mxPoint as="offset" />
          </mxGeometry>
        </mxCell>
        <mxCell id="LZjEHdl2kUvcbKKKhykF-36" value="11" style="endArrow=none;dashed=1;html=1;rounded=0;opacity=70;verticalAlign=top;labelPosition=center;verticalLabelPosition=bottom;align=center;fontFamily=Arial;" parent="1" edge="1">
          <mxGeometry x="-1" width="50" height="50" relative="1" as="geometry">
            <mxPoint x="380" y="200" as="sourcePoint" />
            <mxPoint x="380" as="targetPoint" />
            <mxPoint as="offset" />
          </mxGeometry>
        </mxCell>
        <mxCell id="LZjEHdl2kUvcbKKKhykF-37" value="12" style="endArrow=none;dashed=1;html=1;rounded=0;opacity=70;verticalAlign=top;labelPosition=center;verticalLabelPosition=bottom;align=center;fontFamily=Arial;" parent="1" edge="1">
          <mxGeometry x="-1" width="50" height="50" relative="1" as="geometry">
            <mxPoint x="420" y="200" as="sourcePoint" />
            <mxPoint x="420" as="targetPoint" />
            <mxPoint as="offset" />
          </mxGeometry>
        </mxCell>
        <mxCell id="LZjEHdl2kUvcbKKKhykF-13" style="edgeStyle=orthogonalEdgeStyle;rounded=0;orthogonalLoop=1;jettySize=auto;html=1;entryX=0;entryY=0.5;entryDx=0;entryDy=0;fontFamily=Arial;" parent="1" source="LZjEHdl2kUvcbKKKhykF-1" target="LZjEHdl2kUvcbKKKhykF-3" edge="1">
          <mxGeometry relative="1" as="geometry">
            <Array as="points">
              <mxPoint x="20" y="50" />
            </Array>
          </mxGeometry>
        </mxCell>
        <mxCell id="LZjEHdl2kUvcbKKKhykF-19" style="edgeStyle=orthogonalEdgeStyle;rounded=0;orthogonalLoop=1;jettySize=auto;html=1;entryX=0;entryY=0.5;entryDx=0;entryDy=0;fontFamily=Arial;" parent="1" source="LZjEHdl2kUvcbKKKhykF-1" target="LZjEHdl2kUvcbKKKhykF-4" edge="1">
          <mxGeometry relative="1" as="geometry" />
        </mxCell>
        <mxCell id="LZjEHdl2kUvcbKKKhykF-1" value="Research" style="rounded=0;whiteSpace=wrap;html=1;align=left;spacingLeft=3;spacingRight=3;fontFamily=Arial;" parent="1" vertex="1">
          <mxGeometry x="10" y="10" width="150" height="20" as="geometry" />
        </mxCell>
        <mxCell id="LZjEHdl2kUvcbKKKhykF-17" style="edgeStyle=orthogonalEdgeStyle;rounded=0;orthogonalLoop=1;jettySize=auto;html=1;entryX=0;entryY=0.5;entryDx=0;entryDy=0;fontFamily=Arial;" parent="1" source="LZjEHdl2kUvcbKKKhykF-2" target="LZjEHdl2kUvcbKKKhykF-4" edge="1">
          <mxGeometry relative="1" as="geometry">
            <Array as="points">
              <mxPoint x="170" y="80" />
              <mxPoint x="170" y="20" />
            </Array>
          </mxGeometry>
        </mxCell>
        <mxCell id="LZjEHdl2kUvcbKKKhykF-2" value="Planning" style="rounded=0;whiteSpace=wrap;html=1;align=left;spacingLeft=3;spacingRight=3;fontFamily=Arial;" parent="1" vertex="1">
          <mxGeometry x="80" y="70" width="80" height="20" as="geometry" />
        </mxCell>
        <mxCell id="LZjEHdl2kUvcbKKKhykF-12" style="edgeStyle=orthogonalEdgeStyle;rounded=0;orthogonalLoop=1;jettySize=auto;html=1;entryX=0;entryY=0.5;entryDx=0;entryDy=0;fontFamily=Arial;" parent="1" source="LZjEHdl2kUvcbKKKhykF-3" target="LZjEHdl2kUvcbKKKhykF-2" edge="1">
          <mxGeometry relative="1" as="geometry">
            <Array as="points">
              <mxPoint x="60" y="80" />
            </Array>
          </mxGeometry>
        </mxCell>
        <mxCell id="LZjEHdl2kUvcbKKKhykF-18" style="edgeStyle=orthogonalEdgeStyle;rounded=0;orthogonalLoop=1;jettySize=auto;html=1;entryX=0;entryY=0.5;entryDx=0;entryDy=0;fontFamily=Arial;" parent="1" source="LZjEHdl2kUvcbKKKhykF-3" target="LZjEHdl2kUvcbKKKhykF-4" edge="1">
          <mxGeometry relative="1" as="geometry">
            <Array as="points">
              <mxPoint x="170" y="50" />
              <mxPoint x="170" y="20" />
            </Array>
          </mxGeometry>
        </mxCell>
        <mxCell id="LZjEHdl2kUvcbKKKhykF-3" value="Design" style="rounded=0;whiteSpace=wrap;html=1;align=left;spacingLeft=3;spacingRight=3;fontFamily=Arial;" parent="1" vertex="1">
          <mxGeometry x="40" y="40" width="120" height="20" as="geometry" />
        </mxCell>
        <mxCell id="LZjEHdl2kUvcbKKKhykF-24" style="edgeStyle=orthogonalEdgeStyle;rounded=0;orthogonalLoop=1;jettySize=auto;html=1;entryX=0;entryY=0.5;entryDx=0;entryDy=0;fontFamily=Arial;" parent="1" source="LZjEHdl2kUvcbKKKhykF-4" target="LZjEHdl2kUvcbKKKhykF-5" edge="1">
          <mxGeometry relative="1" as="geometry">
            <Array as="points">
              <mxPoint x="200" y="50" />
            </Array>
          </mxGeometry>
        </mxCell>
        <mxCell id="LZjEHdl2kUvcbKKKhykF-25" style="edgeStyle=orthogonalEdgeStyle;rounded=0;orthogonalLoop=1;jettySize=auto;html=1;entryX=0;entryY=0.5;entryDx=0;entryDy=0;fontFamily=Arial;" parent="1" source="LZjEHdl2kUvcbKKKhykF-4" target="LZjEHdl2kUvcbKKKhykF-6" edge="1">
          <mxGeometry relative="1" as="geometry">
            <Array as="points">
              <mxPoint x="200" y="80" />
            </Array>
          </mxGeometry>
        </mxCell>
        <mxCell id="LZjEHdl2kUvcbKKKhykF-26" style="edgeStyle=orthogonalEdgeStyle;rounded=0;orthogonalLoop=1;jettySize=auto;html=1;entryX=0;entryY=0.5;entryDx=0;entryDy=0;fontFamily=Arial;" parent="1" source="LZjEHdl2kUvcbKKKhykF-4" target="LZjEHdl2kUvcbKKKhykF-7" edge="1">
          <mxGeometry relative="1" as="geometry">
            <Array as="points">
              <mxPoint x="200" y="110" />
            </Array>
          </mxGeometry>
        </mxCell>
        <mxCell id="LZjEHdl2kUvcbKKKhykF-27" style="edgeStyle=orthogonalEdgeStyle;rounded=0;orthogonalLoop=1;jettySize=auto;html=1;entryX=0;entryY=0.5;entryDx=0;entryDy=0;fontFamily=Arial;" parent="1" source="LZjEHdl2kUvcbKKKhykF-4" target="LZjEHdl2kUvcbKKKhykF-8" edge="1">
          <mxGeometry relative="1" as="geometry">
            <Array as="points">
              <mxPoint x="200" y="140" />
            </Array>
          </mxGeometry>
        </mxCell>
        <mxCell id="LZjEHdl2kUvcbKKKhykF-30" style="edgeStyle=orthogonalEdgeStyle;rounded=0;orthogonalLoop=1;jettySize=auto;html=1;entryX=0;entryY=0.5;entryDx=0;entryDy=0;fontFamily=Arial;" parent="1" source="LZjEHdl2kUvcbKKKhykF-4" target="LZjEHdl2kUvcbKKKhykF-29" edge="1">
          <mxGeometry relative="1" as="geometry">
            <Array as="points">
              <mxPoint x="200" y="150" />
              <mxPoint x="170" y="150" />
              <mxPoint x="170" y="170" />
            </Array>
          </mxGeometry>
        </mxCell>
        <mxCell id="LZjEHdl2kUvcbKKKhykF-4" value="Main controller development" style="rounded=0;whiteSpace=wrap;html=1;align=left;spacingLeft=3;spacingRight=3;fontFamily=Arial;" parent="1" vertex="1">
          <mxGeometry x="190" y="10" width="280" height="20" as="geometry" />
        </mxCell>
        <mxCell id="LZjEHdl2kUvcbKKKhykF-20" style="edgeStyle=orthogonalEdgeStyle;rounded=0;orthogonalLoop=1;jettySize=auto;html=1;entryX=1;entryY=0.5;entryDx=0;entryDy=0;fontFamily=Arial;" parent="1" source="LZjEHdl2kUvcbKKKhykF-5" target="LZjEHdl2kUvcbKKKhykF-4" edge="1">
          <mxGeometry relative="1" as="geometry">
            <Array as="points">
              <mxPoint x="490" y="50" />
              <mxPoint x="490" y="20" />
            </Array>
          </mxGeometry>
        </mxCell>
        <mxCell id="LZjEHdl2kUvcbKKKhykF-5" value="Side 1 development" style="rounded=0;whiteSpace=wrap;html=1;align=left;spacingLeft=3;spacingRight=3;fontFamily=Arial;" parent="1" vertex="1">
          <mxGeometry x="220" y="40" width="120" height="20" as="geometry" />
        </mxCell>
        <mxCell id="LZjEHdl2kUvcbKKKhykF-21" style="edgeStyle=orthogonalEdgeStyle;rounded=0;orthogonalLoop=1;jettySize=auto;html=1;entryX=1;entryY=0.5;entryDx=0;entryDy=0;fontFamily=Arial;" parent="1" source="LZjEHdl2kUvcbKKKhykF-6" target="LZjEHdl2kUvcbKKKhykF-4" edge="1">
          <mxGeometry relative="1" as="geometry">
            <Array as="points">
              <mxPoint x="490" y="80" />
              <mxPoint x="490" y="20" />
            </Array>
          </mxGeometry>
        </mxCell>
        <mxCell id="LZjEHdl2kUvcbKKKhykF-6" value="Side 2 development" style="rounded=0;whiteSpace=wrap;html=1;align=left;spacingLeft=3;spacingRight=3;fontFamily=Arial;" parent="1" vertex="1">
          <mxGeometry x="260" y="70" width="120" height="20" as="geometry" />
        </mxCell>
        <mxCell id="LZjEHdl2kUvcbKKKhykF-22" style="edgeStyle=orthogonalEdgeStyle;rounded=0;orthogonalLoop=1;jettySize=auto;html=1;entryX=1;entryY=0.5;entryDx=0;entryDy=0;fontFamily=Arial;" parent="1" source="LZjEHdl2kUvcbKKKhykF-7" target="LZjEHdl2kUvcbKKKhykF-4" edge="1">
          <mxGeometry relative="1" as="geometry">
            <Array as="points">
              <mxPoint x="490" y="110" />
              <mxPoint x="490" y="20" />
            </Array>
          </mxGeometry>
        </mxCell>
        <mxCell id="LZjEHdl2kUvcbKKKhykF-7" value="Side 3 development" style="rounded=0;whiteSpace=wrap;html=1;align=left;spacingLeft=3;spacingRight=3;fontFamily=Arial;" parent="1" vertex="1">
          <mxGeometry x="300" y="100" width="120" height="20" as="geometry" />
        </mxCell>
        <mxCell id="LZjEHdl2kUvcbKKKhykF-23" style="edgeStyle=orthogonalEdgeStyle;rounded=0;orthogonalLoop=1;jettySize=auto;html=1;entryX=1;entryY=0.5;entryDx=0;entryDy=0;fontFamily=Arial;" parent="1" source="LZjEHdl2kUvcbKKKhykF-8" target="LZjEHdl2kUvcbKKKhykF-4" edge="1">
          <mxGeometry relative="1" as="geometry">
            <Array as="points">
              <mxPoint x="490" y="140" />
              <mxPoint x="490" y="20" />
            </Array>
          </mxGeometry>
        </mxCell>
        <mxCell id="LZjEHdl2kUvcbKKKhykF-8" value="Side 4 development" style="rounded=0;whiteSpace=wrap;html=1;align=left;spacingLeft=3;spacingRight=3;fontFamily=Arial;" parent="1" vertex="1">
          <mxGeometry x="340" y="130" width="120" height="20" as="geometry" />
        </mxCell>
        <mxCell id="LZjEHdl2kUvcbKKKhykF-31" style="edgeStyle=orthogonalEdgeStyle;rounded=0;orthogonalLoop=1;jettySize=auto;html=1;entryX=1;entryY=0.5;entryDx=0;entryDy=0;fontFamily=Arial;" parent="1" source="LZjEHdl2kUvcbKKKhykF-29" target="LZjEHdl2kUvcbKKKhykF-4" edge="1">
          <mxGeometry relative="1" as="geometry">
            <Array as="points">
              <mxPoint x="500" y="170" />
              <mxPoint x="500" y="140" />
              <mxPoint x="490" y="140" />
              <mxPoint x="490" y="20" />
            </Array>
          </mxGeometry>
        </mxCell>
        <mxCell id="LZjEHdl2kUvcbKKKhykF-40" style="edgeStyle=orthogonalEdgeStyle;rounded=0;orthogonalLoop=1;jettySize=auto;html=1;entryX=0;entryY=0.5;entryDx=0;entryDy=0;fontFamily=Arial;" parent="1" source="LZjEHdl2kUvcbKKKhykF-29" target="LZjEHdl2kUvcbKKKhykF-39" edge="1">
          <mxGeometry relative="1" as="geometry">
            <Array as="points">
              <mxPoint x="510" y="170" />
              <mxPoint x="510" y="20" />
            </Array>
          </mxGeometry>
        </mxCell>
        <mxCell id="LZjEHdl2kUvcbKKKhykF-42" style="edgeStyle=orthogonalEdgeStyle;rounded=0;orthogonalLoop=1;jettySize=auto;html=1;entryX=0;entryY=0.5;entryDx=0;entryDy=0;fontFamily=Arial;" parent="1" source="LZjEHdl2kUvcbKKKhykF-29" target="LZjEHdl2kUvcbKKKhykF-41" edge="1">
          <mxGeometry relative="1" as="geometry" />
        </mxCell>
        <mxCell id="LZjEHdl2kUvcbKKKhykF-29" value="Test development" style="rounded=0;whiteSpace=wrap;html=1;align=left;spacingLeft=3;spacingRight=3;fontFamily=Arial;" parent="1" vertex="1">
          <mxGeometry x="190" y="160" width="300" height="20" as="geometry" />
        </mxCell>
        <mxCell id="LZjEHdl2kUvcbKKKhykF-32" value="week no." style="endArrow=classic;html=1;rounded=0;align=left;verticalAlign=top;endFill=1;fontFamily=Arial;" parent="1" edge="1">
          <mxGeometry x="-1" width="50" height="50" relative="1" as="geometry">
            <mxPoint y="200" as="sourcePoint" />
            <mxPoint x="640" y="200" as="targetPoint" />
            <mxPoint as="offset" />
          </mxGeometry>
        </mxCell>
        <mxCell id="LZjEHdl2kUvcbKKKhykF-39" value="Validation" style="rounded=0;whiteSpace=wrap;html=1;align=left;spacingLeft=3;spacingRight=3;fontFamily=Arial;" parent="1" vertex="1">
          <mxGeometry x="530" y="10" width="90" height="20" as="geometry" />
        </mxCell>
        <mxCell id="LZjEHdl2kUvcbKKKhykF-41" value="Documentation" style="rounded=0;whiteSpace=wrap;html=1;align=left;spacingLeft=3;spacingRight=3;fontFamily=Arial;" parent="1" vertex="1">
          <mxGeometry x="530" y="40" width="90" height="20" as="geometry" />
        </mxCell>
      </root>
    </mxGraphModel>
  </diagram>
  <diagram id="n9IdmxlkFl1pJjqhBrGT" name="system-bus">
    <mxGraphModel dx="566" dy="347" grid="1" gridSize="10" guides="1" tooltips="1" connect="1" arrows="1" fold="1" page="1" pageScale="1" pageWidth="827" pageHeight="1169" math="0" shadow="0">
      <root>
        <mxCell id="0" />
        <mxCell id="1" parent="0" />
        <mxCell id="EFqebEYhPqh4IJWovyJC-1" value="puzzle bus&lt;br&gt;(I²C + power)" style="line;strokeWidth=4;html=1;perimeter=backbonePerimeter;points=[];outlineConnect=0;align=right;labelPosition=left;verticalLabelPosition=middle;verticalAlign=middle;spacingTop=0;spacing=8;fontFamily=Arial;" parent="1" vertex="1">
          <mxGeometry x="80" y="110" width="320" height="20" as="geometry" />
        </mxCell>
        <mxCell id="EFqebEYhPqh4IJWovyJC-3" style="edgeStyle=orthogonalEdgeStyle;rounded=0;orthogonalLoop=1;jettySize=auto;html=1;startArrow=classic;startFill=1;fontFamily=Arial;" parent="1" source="EFqebEYhPqh4IJWovyJC-2" target="EFqebEYhPqh4IJWovyJC-1" edge="1">
          <mxGeometry relative="1" as="geometry">
            <Array as="points">
              <mxPoint x="120" y="100" />
              <mxPoint x="120" y="100" />
            </Array>
          </mxGeometry>
        </mxCell>
        <mxCell id="EFqebEYhPqh4IJWovyJC-2" value="main controller" style="rounded=0;whiteSpace=wrap;html=1;fontFamily=Arial;" parent="1" vertex="1">
          <mxGeometry x="80" width="80" height="80" as="geometry" />
        </mxCell>
        <mxCell id="EFqebEYhPqh4IJWovyJC-11" style="edgeStyle=orthogonalEdgeStyle;rounded=0;orthogonalLoop=1;jettySize=auto;html=1;startArrow=classic;startFill=1;fontFamily=Arial;" parent="1" source="EFqebEYhPqh4IJWovyJC-4" target="EFqebEYhPqh4IJWovyJC-1" edge="1">
          <mxGeometry relative="1" as="geometry">
            <Array as="points">
              <mxPoint x="240" y="140" />
              <mxPoint x="240" y="140" />
            </Array>
          </mxGeometry>
        </mxCell>
        <mxCell id="EFqebEYhPqh4IJWovyJC-4" value="neotrellis puzzle module" style="rounded=0;whiteSpace=wrap;html=1;fontFamily=Arial;" parent="1" vertex="1">
          <mxGeometry x="200" y="160" width="80" height="80" as="geometry" />
        </mxCell>
        <mxCell id="EFqebEYhPqh4IJWovyJC-10" style="edgeStyle=orthogonalEdgeStyle;rounded=0;orthogonalLoop=1;jettySize=auto;html=1;startArrow=classic;startFill=1;fontFamily=Arial;" parent="1" source="EFqebEYhPqh4IJWovyJC-5" target="EFqebEYhPqh4IJWovyJC-1" edge="1">
          <mxGeometry relative="1" as="geometry">
            <Array as="points">
              <mxPoint x="360" y="150" />
              <mxPoint x="360" y="150" />
            </Array>
          </mxGeometry>
        </mxCell>
        <mxCell id="EFqebEYhPqh4IJWovyJC-5" value="vault puzzle module" style="rounded=0;whiteSpace=wrap;html=1;fontFamily=Arial;" parent="1" vertex="1">
          <mxGeometry x="320" y="160" width="80" height="80" as="geometry" />
        </mxCell>
        <mxCell id="EFqebEYhPqh4IJWovyJC-8" style="edgeStyle=orthogonalEdgeStyle;rounded=0;orthogonalLoop=1;jettySize=auto;html=1;startArrow=classic;startFill=1;fontFamily=Arial;" parent="1" source="EFqebEYhPqh4IJWovyJC-6" target="EFqebEYhPqh4IJWovyJC-1" edge="1">
          <mxGeometry relative="1" as="geometry">
            <Array as="points">
              <mxPoint x="240" y="100" />
              <mxPoint x="240" y="100" />
            </Array>
          </mxGeometry>
        </mxCell>
        <mxCell id="EFqebEYhPqh4IJWovyJC-6" value="software puzzle module" style="rounded=0;whiteSpace=wrap;html=1;fontFamily=Arial;" parent="1" vertex="1">
          <mxGeometry x="200" width="80" height="80" as="geometry" />
        </mxCell>
        <mxCell id="EFqebEYhPqh4IJWovyJC-9" style="edgeStyle=orthogonalEdgeStyle;rounded=0;orthogonalLoop=1;jettySize=auto;html=1;startArrow=classic;startFill=1;fontFamily=Arial;" parent="1" source="EFqebEYhPqh4IJWovyJC-7" target="EFqebEYhPqh4IJWovyJC-1" edge="1">
          <mxGeometry relative="1" as="geometry">
            <Array as="points">
              <mxPoint x="360" y="100" />
              <mxPoint x="360" y="100" />
            </Array>
          </mxGeometry>
        </mxCell>
        <mxCell id="EFqebEYhPqh4IJWovyJC-7" value="hardware puzzle module" style="rounded=0;whiteSpace=wrap;html=1;fontFamily=Arial;" parent="1" vertex="1">
          <mxGeometry x="320" width="80" height="80" as="geometry" />
        </mxCell>
        <mxCell id="EFqebEYhPqh4IJWovyJC-13" style="edgeStyle=orthogonalEdgeStyle;rounded=0;orthogonalLoop=1;jettySize=auto;html=1;fontFamily=Arial;" parent="1" source="EFqebEYhPqh4IJWovyJC-12" target="EFqebEYhPqh4IJWovyJC-1" edge="1">
          <mxGeometry relative="1" as="geometry">
            <Array as="points">
              <mxPoint x="120" y="130" />
              <mxPoint x="120" y="130" />
            </Array>
          </mxGeometry>
        </mxCell>
        <mxCell id="EFqebEYhPqh4IJWovyJC-12" value="power supply&lt;br&gt;(battery pack)" style="rounded=0;whiteSpace=wrap;html=1;fontFamily=Arial;" parent="1" vertex="1">
          <mxGeometry x="80" y="160" width="80" height="80" as="geometry" />
        </mxCell>
      </root>
    </mxGraphModel>
  </diagram>
  <diagram id="h3DvyZ0KajeRp1tPME5F" name="system-top">
    <mxGraphModel dx="566" dy="347" grid="1" gridSize="10" guides="1" tooltips="1" connect="1" arrows="1" fold="1" page="1" pageScale="1" pageWidth="827" pageHeight="1169" math="0" shadow="0">
      <root>
        <mxCell id="0" />
        <mxCell id="1" parent="0" />
        <mxCell id="nQz1uFQE7kBfjPpRPLva-4" value="puzzle outputs" style="edgeStyle=orthogonalEdgeStyle;rounded=0;orthogonalLoop=1;jettySize=auto;html=1;labelPosition=right;verticalLabelPosition=middle;align=left;verticalAlign=middle;spacing=8;fontFamily=Arial;" parent="1" source="nQz1uFQE7kBfjPpRPLva-1" target="nQz1uFQE7kBfjPpRPLva-3" edge="1">
          <mxGeometry x="-0.8054" y="-20" relative="1" as="geometry">
            <Array as="points">
              <mxPoint x="230" y="110" />
              <mxPoint x="230" y="30" />
            </Array>
            <mxPoint as="offset" />
          </mxGeometry>
        </mxCell>
        <mxCell id="rSJYnGe5hIWkDpeJhH4a-6" style="edgeStyle=orthogonalEdgeStyle;rounded=0;orthogonalLoop=1;jettySize=auto;html=1;fontFamily=Arial;" parent="1" source="nQz1uFQE7kBfjPpRPLva-1" target="rSJYnGe5hIWkDpeJhH4a-5" edge="1">
          <mxGeometry relative="1" as="geometry">
            <Array as="points">
              <mxPoint x="220" y="150" />
              <mxPoint x="220" y="150" />
            </Array>
          </mxGeometry>
        </mxCell>
        <mxCell id="nQz1uFQE7kBfjPpRPLva-1" value="puzzle box" style="rounded=0;whiteSpace=wrap;html=1;fontFamily=Arial;" parent="1" vertex="1">
          <mxGeometry x="110" y="90" width="80" height="80" as="geometry" />
        </mxCell>
        <mxCell id="nQz1uFQE7kBfjPpRPLva-2" value="puzzle inputs" style="endArrow=classic;html=1;rounded=0;edgeStyle=orthogonalEdgeStyle;elbow=vertical;labelPosition=left;verticalLabelPosition=middle;align=right;verticalAlign=middle;spacing=8;fontFamily=Arial;" parent="1" source="nQz1uFQE7kBfjPpRPLva-3" target="nQz1uFQE7kBfjPpRPLva-1" edge="1">
          <mxGeometry x="0.6098" width="50" height="50" relative="1" as="geometry">
            <mxPoint x="70" y="110" as="sourcePoint" />
            <mxPoint x="120" y="130" as="targetPoint" />
            <Array as="points">
              <mxPoint x="70" y="30" />
              <mxPoint x="70" y="110" />
            </Array>
            <mxPoint as="offset" />
          </mxGeometry>
        </mxCell>
        <mxCell id="nQz1uFQE7kBfjPpRPLva-3" value="player(s)" style="shape=umlActor;verticalLabelPosition=bottom;verticalAlign=top;html=1;outlineConnect=0;fontFamily=Arial;" parent="1" vertex="1">
          <mxGeometry x="135" width="30" height="60" as="geometry" />
        </mxCell>
        <mxCell id="nQz1uFQE7kBfjPpRPLva-6" value="charger" style="endArrow=classic;html=1;rounded=0;edgeStyle=elbowEdgeStyle;elbow=vertical;labelPosition=left;verticalLabelPosition=middle;align=right;verticalAlign=middle;dashed=1;spacing=8;fontFamily=Arial;" parent="1" target="nQz1uFQE7kBfjPpRPLva-1" edge="1">
          <mxGeometry x="-1" width="50" height="50" relative="1" as="geometry">
            <mxPoint x="70" y="150" as="sourcePoint" />
            <mxPoint x="90" y="150.2" as="targetPoint" />
            <mxPoint as="offset" />
          </mxGeometry>
        </mxCell>
        <mxCell id="rSJYnGe5hIWkDpeJhH4a-4" value="Wi-Fi" style="shape=link;html=1;rounded=0;edgeStyle=orthogonalEdgeStyle;dashed=1;labelPosition=center;verticalLabelPosition=bottom;align=center;verticalAlign=top;fontFamily=Arial;" parent="1" source="nQz1uFQE7kBfjPpRPLva-1" edge="1">
          <mxGeometry x="1" width="100" relative="1" as="geometry">
            <mxPoint x="120" y="210" as="sourcePoint" />
            <mxPoint x="150" y="210" as="targetPoint" />
            <mxPoint as="offset" />
          </mxGeometry>
        </mxCell>
        <mxCell id="rSJYnGe5hIWkDpeJhH4a-5" value="bomb" style="rounded=0;whiteSpace=wrap;html=1;dashed=1;fontFamily=Arial;" parent="1" vertex="1">
          <mxGeometry x="310" y="90" width="80" height="80" as="geometry" />
        </mxCell>
      </root>
    </mxGraphModel>
  </diagram>
  <diagram id="V5677hnVqFOUu4LEfIlK" name="main-controller-top">
    <mxGraphModel dx="673" dy="413" grid="1" gridSize="10" guides="1" tooltips="1" connect="1" arrows="1" fold="1" page="1" pageScale="1" pageWidth="827" pageHeight="1169" math="0" shadow="0">
      <root>
        <mxCell id="0" />
        <mxCell id="1" parent="0" />
        <mxCell id="E0vY4Tb27X8IZZSuRO_E-1" value="main controller" style="rounded=0;whiteSpace=wrap;html=1;fontFamily=Arial;" parent="1" vertex="1">
          <mxGeometry x="70" y="40" width="80" height="80" as="geometry" />
        </mxCell>
        <mxCell id="E0vY4Tb27X8IZZSuRO_E-2" value="" style="endArrow=classic;startArrow=classic;html=1;rounded=0;entryX=0.5;entryY=1;entryDx=0;entryDy=0;fontFamily=Arial;" parent="1" source="_QeJvxVuYCE5Bx7Zj5Sh-1" target="E0vY4Tb27X8IZZSuRO_E-1" edge="1">
          <mxGeometry width="50" height="50" relative="1" as="geometry">
            <mxPoint x="110" y="170" as="sourcePoint" />
            <mxPoint x="140" y="90" as="targetPoint" />
          </mxGeometry>
        </mxCell>
        <mxCell id="_QeJvxVuYCE5Bx7Zj5Sh-1" value="puzzle bus" style="line;strokeWidth=4;html=1;perimeter=backbonePerimeter;points=[];outlineConnect=0;align=right;labelPosition=left;verticalLabelPosition=middle;verticalAlign=middle;spacingTop=0;spacing=8;fontFamily=Arial;" parent="1" vertex="1">
          <mxGeometry x="70" y="150" width="80" height="20" as="geometry" />
        </mxCell>
        <mxCell id="eXW24AF1M1Q80XVxQB3d-1" value="Wi-Fi" style="shape=link;html=1;rounded=0;edgeStyle=orthogonalEdgeStyle;dashed=1;labelPosition=center;verticalLabelPosition=top;align=center;verticalAlign=bottom;fontFamily=Arial;" parent="1" source="E0vY4Tb27X8IZZSuRO_E-1" edge="1">
          <mxGeometry x="1" width="100" relative="1" as="geometry">
            <mxPoint x="160" y="10" as="sourcePoint" />
            <mxPoint x="110" y="20" as="targetPoint" />
            <mxPoint as="offset" />
          </mxGeometry>
        </mxCell>
      </root>
    </mxGraphModel>
  </diagram>
  <diagram name="puzzle-module-top" id="5pAH2Yn7Y32GPKnI9U_5">
    <mxGraphModel dx="566" dy="347" grid="1" gridSize="10" guides="1" tooltips="1" connect="1" arrows="1" fold="1" page="1" pageScale="1" pageWidth="827" pageHeight="1169" math="0" shadow="0">
      <root>
        <mxCell id="BVMe8izj958RTkFm3z60-0" />
        <mxCell id="BVMe8izj958RTkFm3z60-1" parent="BVMe8izj958RTkFm3z60-0" />
        <mxCell id="BVMe8izj958RTkFm3z60-2" value="puzzle module" style="rounded=0;whiteSpace=wrap;html=1;fontFamily=Arial;" parent="BVMe8izj958RTkFm3z60-1" vertex="1">
          <mxGeometry x="120" width="80" height="80" as="geometry" />
        </mxCell>
        <mxCell id="BVMe8izj958RTkFm3z60-3" value="" style="endArrow=classic;startArrow=classic;html=1;rounded=0;entryX=0.5;entryY=1;entryDx=0;entryDy=0;fontFamily=Arial;" parent="BVMe8izj958RTkFm3z60-1" source="BVMe8izj958RTkFm3z60-4" target="BVMe8izj958RTkFm3z60-2" edge="1">
          <mxGeometry width="50" height="50" relative="1" as="geometry">
            <mxPoint x="160" y="130" as="sourcePoint" />
            <mxPoint x="190" y="50" as="targetPoint" />
          </mxGeometry>
        </mxCell>
        <mxCell id="BVMe8izj958RTkFm3z60-4" value="puzzle bus" style="line;strokeWidth=4;html=1;perimeter=backbonePerimeter;points=[];outlineConnect=0;align=right;labelPosition=left;verticalLabelPosition=middle;verticalAlign=middle;spacingTop=0;spacing=8;fontFamily=Arial;" parent="BVMe8izj958RTkFm3z60-1" vertex="1">
          <mxGeometry x="120" y="110" width="80" height="20" as="geometry" />
        </mxCell>
        <mxCell id="tTlcU9ZqAkPjyI4FRPs--0" value="puzzle outputs" style="endArrow=classic;html=1;rounded=0;edgeStyle=orthogonalEdgeStyle;labelPosition=right;verticalLabelPosition=middle;align=left;verticalAlign=middle;spacing=8;fontFamily=Arial;" parent="BVMe8izj958RTkFm3z60-1" source="BVMe8izj958RTkFm3z60-2" edge="1">
          <mxGeometry x="1" width="50" height="50" relative="1" as="geometry">
            <mxPoint x="150" y="120" as="sourcePoint" />
            <mxPoint x="240" y="40" as="targetPoint" />
            <mxPoint as="offset" />
          </mxGeometry>
        </mxCell>
        <mxCell id="tTlcU9ZqAkPjyI4FRPs--1" value="puzzle inputs" style="endArrow=classic;html=1;rounded=0;edgeStyle=orthogonalEdgeStyle;labelPosition=left;verticalLabelPosition=middle;align=right;verticalAlign=middle;spacing=8;fontFamily=Arial;" parent="BVMe8izj958RTkFm3z60-1" target="BVMe8izj958RTkFm3z60-2" edge="1">
          <mxGeometry x="-1" width="50" height="50" relative="1" as="geometry">
            <mxPoint x="80" y="40" as="sourcePoint" />
            <mxPoint x="270" y="50" as="targetPoint" />
            <mxPoint as="offset" />
          </mxGeometry>
        </mxCell>
      </root>
    </mxGraphModel>
  </diagram>
  <diagram name="power-supply-top" id="OyUTR4VJhJkLCMkp9sBg">
    <mxGraphModel dx="471" dy="289" grid="1" gridSize="10" guides="1" tooltips="1" connect="1" arrows="1" fold="1" page="1" pageScale="1" pageWidth="827" pageHeight="1169" math="0" shadow="0">
      <root>
        <mxCell id="JhLPvhhKfH0WU0wtARFb-0" />
        <mxCell id="JhLPvhhKfH0WU0wtARFb-1" parent="JhLPvhhKfH0WU0wtARFb-0" />
        <mxCell id="JhLPvhhKfH0WU0wtARFb-2" value="power supply" style="rounded=0;whiteSpace=wrap;html=1;fontFamily=Arial;" parent="JhLPvhhKfH0WU0wtARFb-1" vertex="1">
          <mxGeometry x="90" width="80" height="80" as="geometry" />
        </mxCell>
        <mxCell id="JhLPvhhKfH0WU0wtARFb-3" value="" style="endArrow=none;startArrow=classic;html=1;rounded=0;entryX=0.5;entryY=1;entryDx=0;entryDy=0;fontFamily=Arial;endFill=0;" parent="JhLPvhhKfH0WU0wtARFb-1" source="JhLPvhhKfH0WU0wtARFb-4" target="JhLPvhhKfH0WU0wtARFb-2" edge="1">
          <mxGeometry width="50" height="50" relative="1" as="geometry">
            <mxPoint x="130" y="130" as="sourcePoint" />
            <mxPoint x="160" y="50" as="targetPoint" />
          </mxGeometry>
        </mxCell>
        <mxCell id="JhLPvhhKfH0WU0wtARFb-4" value="puzzle bus" style="line;strokeWidth=4;html=1;perimeter=backbonePerimeter;points=[];outlineConnect=0;align=right;labelPosition=left;verticalLabelPosition=middle;verticalAlign=middle;spacingTop=0;spacing=8;fontFamily=Arial;" parent="JhLPvhhKfH0WU0wtARFb-1" vertex="1">
          <mxGeometry x="90" y="110" width="80" height="20" as="geometry" />
        </mxCell>
        <mxCell id="G88CfNIh1Ql9ssuBFCwE-0" value="charger" style="endArrow=classic;html=1;rounded=0;edgeStyle=elbowEdgeStyle;elbow=vertical;labelPosition=left;verticalLabelPosition=middle;align=right;verticalAlign=middle;dashed=1;spacing=8;fontFamily=Arial;" parent="JhLPvhhKfH0WU0wtARFb-1" target="JhLPvhhKfH0WU0wtARFb-2" edge="1">
          <mxGeometry x="-1" width="50" height="50" relative="1" as="geometry">
            <mxPoint x="50" y="40" as="sourcePoint" />
            <mxPoint x="80" y="140" as="targetPoint" />
            <mxPoint as="offset" />
          </mxGeometry>
        </mxCell>
      </root>
    </mxGraphModel>
  </diagram>
  <diagram id="tQJt-i1klPodeKevl6yF" name="puzzle-module-common-state">
    <mxGraphModel dx="673" dy="413" grid="1" gridSize="10" guides="1" tooltips="1" connect="1" arrows="1" fold="1" page="1" pageScale="1" pageWidth="827" pageHeight="1169" math="0" shadow="0">
      <root>
        <mxCell id="0" />
        <mxCell id="1" parent="0" />
        <mxCell id="mQ-fNEReojakqp_WspgU-2" style="rounded=0;orthogonalLoop=1;jettySize=auto;html=1;" edge="1" parent="1" source="5xofdATqJuVrBNkdsEzn-2" target="5xofdATqJuVrBNkdsEzn-3">
          <mxGeometry relative="1" as="geometry" />
        </mxCell>
        <mxCell id="5xofdATqJuVrBNkdsEzn-2" value="uninitialized" style="ellipse;whiteSpace=wrap;html=1;fontFamily=Arial;" parent="1" vertex="1">
          <mxGeometry width="80" height="80" as="geometry" />
        </mxCell>
        <mxCell id="5xofdATqJuVrBNkdsEzn-6" style="rounded=0;orthogonalLoop=1;jettySize=auto;html=1;fontFamily=Arial;dashed=1;" parent="1" source="5xofdATqJuVrBNkdsEzn-3" target="5xofdATqJuVrBNkdsEzn-4" edge="1">
          <mxGeometry relative="1" as="geometry" />
        </mxCell>
        <mxCell id="5xofdATqJuVrBNkdsEzn-3" value="idle" style="ellipse;whiteSpace=wrap;html=1;fontFamily=Arial;" parent="1" vertex="1">
          <mxGeometry x="100" width="80" height="80" as="geometry" />
        </mxCell>
        <mxCell id="5xofdATqJuVrBNkdsEzn-7" style="rounded=0;orthogonalLoop=1;jettySize=auto;html=1;fontFamily=Arial;" parent="1" source="5xofdATqJuVrBNkdsEzn-4" target="5xofdATqJuVrBNkdsEzn-5" edge="1">
          <mxGeometry relative="1" as="geometry" />
        </mxCell>
        <mxCell id="5xofdATqJuVrBNkdsEzn-4" value="playing" style="ellipse;whiteSpace=wrap;html=1;fontFamily=Arial;" parent="1" vertex="1">
          <mxGeometry x="200" width="80" height="80" as="geometry" />
        </mxCell>
        <mxCell id="5xofdATqJuVrBNkdsEzn-5" value="solved" style="ellipse;whiteSpace=wrap;html=1;fontFamily=Arial;" parent="1" vertex="1">
          <mxGeometry x="300" width="80" height="80" as="geometry" />
        </mxCell>
      </root>
    </mxGraphModel>
  </diagram>
  <diagram id="3POUz5nivpBRA6uf3okY" name="main-controller-state">
    <mxGraphModel dx="673" dy="413" grid="1" gridSize="10" guides="1" tooltips="1" connect="1" arrows="1" fold="1" page="1" pageScale="1" pageWidth="827" pageHeight="1169" math="0" shadow="0">
      <root>
        <mxCell id="0" />
        <mxCell id="1" parent="0" />
        <mxCell id="7O8kuJQz2iaT31b0g9wK-1" style="rounded=0;orthogonalLoop=1;jettySize=auto;html=1;fontFamily=Arial;curved=1;dashed=1;" parent="1" source="7O8kuJQz2iaT31b0g9wK-2" target="7O8kuJQz2iaT31b0g9wK-4" edge="1">
          <mxGeometry relative="1" as="geometry">
            <Array as="points">
              <mxPoint x="90" y="70" />
            </Array>
          </mxGeometry>
        </mxCell>
        <mxCell id="7O8kuJQz2iaT31b0g9wK-2" value="idle" style="ellipse;whiteSpace=wrap;html=1;fontFamily=Arial;" parent="1" vertex="1">
          <mxGeometry width="80" height="80" as="geometry" />
        </mxCell>
        <mxCell id="7O8kuJQz2iaT31b0g9wK-4" value="playing" style="ellipse;whiteSpace=wrap;html=1;fontFamily=Arial;" parent="1" vertex="1">
          <mxGeometry x="100" width="80" height="80" as="geometry" />
        </mxCell>
        <mxCell id="7O8kuJQz2iaT31b0g9wK-5" value="solved" style="ellipse;whiteSpace=wrap;html=1;fontFamily=Arial;" parent="1" vertex="1">
          <mxGeometry x="200" width="80" height="80" as="geometry" />
        </mxCell>
        <mxCell id="7O8kuJQz2iaT31b0g9wK-6" style="rounded=0;orthogonalLoop=1;jettySize=auto;html=1;fontFamily=Arial;curved=1;dashed=1;" parent="1" source="7O8kuJQz2iaT31b0g9wK-4" target="7O8kuJQz2iaT31b0g9wK-2" edge="1">
          <mxGeometry relative="1" as="geometry">
            <mxPoint x="85" y="76" as="sourcePoint" />
            <mxPoint x="85" y="124" as="targetPoint" />
            <Array as="points">
              <mxPoint x="90" y="10" />
            </Array>
          </mxGeometry>
        </mxCell>
        <mxCell id="7O8kuJQz2iaT31b0g9wK-7" style="rounded=0;orthogonalLoop=1;jettySize=auto;html=1;fontFamily=Arial;curved=1;dashed=1;" parent="1" source="7O8kuJQz2iaT31b0g9wK-4" target="7O8kuJQz2iaT31b0g9wK-5" edge="1">
          <mxGeometry relative="1" as="geometry">
            <mxPoint x="75" y="150" as="sourcePoint" />
            <mxPoint x="75" y="198" as="targetPoint" />
            <Array as="points">
              <mxPoint x="190" y="70" />
            </Array>
          </mxGeometry>
        </mxCell>
        <mxCell id="7O8kuJQz2iaT31b0g9wK-8" style="rounded=0;orthogonalLoop=1;jettySize=auto;html=1;fontFamily=Arial;curved=1;dashed=1;" parent="1" source="7O8kuJQz2iaT31b0g9wK-5" target="7O8kuJQz2iaT31b0g9wK-4" edge="1">
          <mxGeometry relative="1" as="geometry">
            <mxPoint x="45" y="198" as="sourcePoint" />
            <mxPoint x="45" y="150" as="targetPoint" />
            <Array as="points">
              <mxPoint x="190" y="10" />
            </Array>
          </mxGeometry>
        </mxCell>
      </root>
    </mxGraphModel>
  </diagram>
  <diagram id="nZD7urG06ZLRag7bfLhG" name="vault-puzzle-io">
    <mxGraphModel dx="1414" dy="867" grid="1" gridSize="10" guides="1" tooltips="1" connect="1" arrows="1" fold="1" page="1" pageScale="1" pageWidth="1100" pageHeight="850" math="0" shadow="0">
      <root>
        <mxCell id="7HM9CflW6hoJ5ROsD5Xs-0" />
        <mxCell id="7HM9CflW6hoJ5ROsD5Xs-1" parent="7HM9CflW6hoJ5ROsD5Xs-0" />
        <mxCell id="7HM9CflW6hoJ5ROsD5Xs-2" value="[Vault puzzle module]&lt;br&gt;ESP32 PICO D4 Devkit" style="rounded=0;whiteSpace=wrap;html=1;" parent="7HM9CflW6hoJ5ROsD5Xs-1" vertex="1">
          <mxGeometry x="490" y="250" width="120" height="200" as="geometry" />
        </mxCell>
        <mxCell id="7HM9CflW6hoJ5ROsD5Xs-3" value="IN" style="text;html=1;strokeColor=none;fillColor=none;align=center;verticalAlign=middle;whiteSpace=wrap;rounded=0;" parent="7HM9CflW6hoJ5ROsD5Xs-1" vertex="1">
          <mxGeometry x="440" y="250" width="40" height="20" as="geometry" />
        </mxCell>
        <mxCell id="7HM9CflW6hoJ5ROsD5Xs-4" value="OUT" style="text;html=1;strokeColor=none;fillColor=none;align=center;verticalAlign=middle;whiteSpace=wrap;rounded=0;" parent="7HM9CflW6hoJ5ROsD5Xs-1" vertex="1">
          <mxGeometry x="620" y="250" width="40" height="20" as="geometry" />
        </mxCell>
        <mxCell id="7HM9CflW6hoJ5ROsD5Xs-6" value="" style="endArrow=none;html=1;strokeWidth=3;" parent="7HM9CflW6hoJ5ROsD5Xs-1" edge="1">
          <mxGeometry width="50" height="50" relative="1" as="geometry">
            <mxPoint x="280" y="560" as="sourcePoint" />
            <mxPoint x="920" y="560" as="targetPoint" />
          </mxGeometry>
        </mxCell>
        <mxCell id="7HM9CflW6hoJ5ROsD5Xs-7" value="" style="endArrow=classic;startArrow=classic;html=1;strokeWidth=1;entryX=0.5;entryY=1;entryDx=0;entryDy=0;" parent="7HM9CflW6hoJ5ROsD5Xs-1" target="7HM9CflW6hoJ5ROsD5Xs-2" edge="1">
          <mxGeometry width="50" height="50" relative="1" as="geometry">
            <mxPoint x="550" y="560" as="sourcePoint" />
            <mxPoint x="390" y="370" as="targetPoint" />
          </mxGeometry>
        </mxCell>
        <mxCell id="7HM9CflW6hoJ5ROsD5Xs-8" value="Puzzle bus&lt;br&gt;I²C + power" style="text;html=1;strokeColor=none;fillColor=none;align=center;verticalAlign=middle;whiteSpace=wrap;rounded=0;" parent="7HM9CflW6hoJ5ROsD5Xs-1" vertex="1">
          <mxGeometry x="180" y="550" width="110" height="20" as="geometry" />
        </mxCell>
        <mxCell id="7HM9CflW6hoJ5ROsD5Xs-9" value="4x 7-SEG diplay package" style="rounded=0;whiteSpace=wrap;html=1;" parent="7HM9CflW6hoJ5ROsD5Xs-1" vertex="1">
          <mxGeometry x="780" y="240" width="120" height="60" as="geometry" />
        </mxCell>
        <mxCell id="7HM9CflW6hoJ5ROsD5Xs-10" value="Keypad" style="rounded=0;whiteSpace=wrap;html=1;" parent="7HM9CflW6hoJ5ROsD5Xs-1" vertex="1">
          <mxGeometry x="230" y="320" width="120" height="60" as="geometry" />
        </mxCell>
        <mxCell id="7HM9CflW6hoJ5ROsD5Xs-11" value="Solenoid lock" style="rounded=0;whiteSpace=wrap;html=1;" parent="7HM9CflW6hoJ5ROsD5Xs-1" vertex="1">
          <mxGeometry x="780" y="320" width="120" height="60" as="geometry" />
        </mxCell>
        <mxCell id="7HM9CflW6hoJ5ROsD5Xs-12" value="Buzzer" style="rounded=0;whiteSpace=wrap;html=1;" parent="7HM9CflW6hoJ5ROsD5Xs-1" vertex="1">
          <mxGeometry x="780" y="400" width="120" height="60" as="geometry" />
        </mxCell>
        <mxCell id="7HM9CflW6hoJ5ROsD5Xs-13" value="" style="endArrow=classic;startArrow=none;html=1;strokeWidth=1;entryX=0;entryY=0.5;entryDx=0;entryDy=0;exitX=1;exitY=0.5;exitDx=0;exitDy=0;startFill=0;" parent="7HM9CflW6hoJ5ROsD5Xs-1" source="7HM9CflW6hoJ5ROsD5Xs-10" target="7HM9CflW6hoJ5ROsD5Xs-2" edge="1">
          <mxGeometry width="50" height="50" relative="1" as="geometry">
            <mxPoint x="290" y="480" as="sourcePoint" />
            <mxPoint x="340" y="430" as="targetPoint" />
          </mxGeometry>
        </mxCell>
        <mxCell id="7HM9CflW6hoJ5ROsD5Xs-14" value="" style="endArrow=classic;startArrow=none;html=1;strokeWidth=1;entryX=-0.008;entryY=0.617;entryDx=0;entryDy=0;entryPerimeter=0;exitX=1.025;exitY=0.535;exitDx=0;exitDy=0;exitPerimeter=0;startFill=0;" parent="7HM9CflW6hoJ5ROsD5Xs-1" source="7HM9CflW6hoJ5ROsD5Xs-2" target="7HM9CflW6hoJ5ROsD5Xs-11" edge="1">
          <mxGeometry width="50" height="50" relative="1" as="geometry">
            <mxPoint x="660" y="390" as="sourcePoint" />
            <mxPoint x="710" y="340" as="targetPoint" />
          </mxGeometry>
        </mxCell>
        <mxCell id="7HM9CflW6hoJ5ROsD5Xs-15" value="" style="endArrow=classic;startArrow=none;html=1;strokeWidth=1;entryX=0;entryY=0.75;entryDx=0;entryDy=0;exitX=1.025;exitY=0.175;exitDx=0;exitDy=0;exitPerimeter=0;startFill=0;" parent="7HM9CflW6hoJ5ROsD5Xs-1" source="7HM9CflW6hoJ5ROsD5Xs-2" target="7HM9CflW6hoJ5ROsD5Xs-9" edge="1">
          <mxGeometry width="50" height="50" relative="1" as="geometry">
            <mxPoint x="630" y="290" as="sourcePoint" />
            <mxPoint x="710" y="420" as="targetPoint" />
          </mxGeometry>
        </mxCell>
        <mxCell id="7HM9CflW6hoJ5ROsD5Xs-16" value="" style="endArrow=classic;startArrow=none;html=1;strokeWidth=1;entryX=0;entryY=0.25;entryDx=0;entryDy=0;exitX=1.025;exitY=0.83;exitDx=0;exitDy=0;exitPerimeter=0;startFill=0;" parent="7HM9CflW6hoJ5ROsD5Xs-1" source="7HM9CflW6hoJ5ROsD5Xs-2" target="7HM9CflW6hoJ5ROsD5Xs-12" edge="1">
          <mxGeometry width="50" height="50" relative="1" as="geometry">
            <mxPoint x="620" y="520" as="sourcePoint" />
            <mxPoint x="670" y="470" as="targetPoint" />
          </mxGeometry>
        </mxCell>
        <mxCell id="7HM9CflW6hoJ5ROsD5Xs-18" value="" style="endArrow=none;html=1;strokeWidth=1;" parent="7HM9CflW6hoJ5ROsD5Xs-1" edge="1">
          <mxGeometry width="50" height="50" relative="1" as="geometry">
            <mxPoint x="410" y="360" as="sourcePoint" />
            <mxPoint x="420" y="340" as="targetPoint" />
          </mxGeometry>
        </mxCell>
        <mxCell id="7HM9CflW6hoJ5ROsD5Xs-22" value="" style="endArrow=none;html=1;strokeWidth=1;" parent="7HM9CflW6hoJ5ROsD5Xs-1" edge="1">
          <mxGeometry width="50" height="50" relative="1" as="geometry">
            <mxPoint x="690" y="296" as="sourcePoint" />
            <mxPoint x="700" y="276" as="targetPoint" />
          </mxGeometry>
        </mxCell>
        <mxCell id="7HM9CflW6hoJ5ROsD5Xs-23" value="5" style="text;html=1;strokeColor=none;fillColor=none;align=center;verticalAlign=middle;whiteSpace=wrap;rounded=0;" parent="7HM9CflW6hoJ5ROsD5Xs-1" vertex="1">
          <mxGeometry x="400" y="310" width="40" height="20" as="geometry" />
        </mxCell>
        <mxCell id="7HM9CflW6hoJ5ROsD5Xs-24" value="2" style="text;html=1;strokeColor=none;fillColor=none;align=center;verticalAlign=middle;whiteSpace=wrap;rounded=0;" parent="7HM9CflW6hoJ5ROsD5Xs-1" vertex="1">
          <mxGeometry x="680" y="250" width="40" height="20" as="geometry" />
        </mxCell>
        <mxCell id="7HM9CflW6hoJ5ROsD5Xs-27" value="" style="endArrow=none;html=1;strokeWidth=1;" parent="7HM9CflW6hoJ5ROsD5Xs-1" edge="1">
          <mxGeometry width="50" height="50" relative="1" as="geometry">
            <mxPoint x="540" y="512" as="sourcePoint" />
            <mxPoint x="560" y="492" as="targetPoint" />
          </mxGeometry>
        </mxCell>
        <mxCell id="7HM9CflW6hoJ5ROsD5Xs-28" value="2" style="text;html=1;strokeColor=none;fillColor=none;align=center;verticalAlign=middle;whiteSpace=wrap;rounded=0;" parent="7HM9CflW6hoJ5ROsD5Xs-1" vertex="1">
          <mxGeometry x="550" y="490" width="40" height="20" as="geometry" />
        </mxCell>
      </root>
    </mxGraphModel>
  </diagram>
  <diagram id="7POXNBDTHuzmCPITFMB0" name="puzzlebox-bomb">
    <mxGraphModel dx="1414" dy="867" grid="1" gridSize="10" guides="1" tooltips="1" connect="1" arrows="1" fold="1" page="1" pageScale="1" pageWidth="1100" pageHeight="850" math="0" shadow="0">
      <root>
        <mxCell id="VDsyqYXPtuEwqBrCnzhW-0" />
        <mxCell id="VDsyqYXPtuEwqBrCnzhW-1" parent="VDsyqYXPtuEwqBrCnzhW-0" />
        <mxCell id="MrWMUG4uQ_69N9tKeiNV-0" value="Puzzlebox" style="rounded=0;whiteSpace=wrap;html=1;fontFamily=Arial;" parent="VDsyqYXPtuEwqBrCnzhW-1" vertex="1">
          <mxGeometry x="300" y="415" width="80" height="80" as="geometry" />
        </mxCell>
        <mxCell id="MrWMUG4uQ_69N9tKeiNV-3" value="Wi-Fi" style="shape=link;html=1;rounded=0;edgeStyle=orthogonalEdgeStyle;dashed=1;labelPosition=center;verticalLabelPosition=top;align=center;verticalAlign=bottom;fontFamily=Arial;" parent="VDsyqYXPtuEwqBrCnzhW-1" source="MrWMUG4uQ_69N9tKeiNV-0" edge="1">
          <mxGeometry x="1" width="100" relative="1" as="geometry">
            <mxPoint x="390" y="385" as="sourcePoint" />
            <mxPoint x="340" y="375" as="targetPoint" />
            <mxPoint as="offset" />
          </mxGeometry>
        </mxCell>
        <mxCell id="MrWMUG4uQ_69N9tKeiNV-4" value="Bomb" style="rounded=0;whiteSpace=wrap;html=1;fontFamily=Arial;" parent="VDsyqYXPtuEwqBrCnzhW-1" vertex="1">
          <mxGeometry x="700" y="415" width="80" height="80" as="geometry" />
        </mxCell>
        <mxCell id="MrWMUG4uQ_69N9tKeiNV-7" value="Wi-Fi" style="shape=link;html=1;rounded=0;edgeStyle=orthogonalEdgeStyle;dashed=1;labelPosition=center;verticalLabelPosition=top;align=center;verticalAlign=bottom;fontFamily=Arial;" parent="VDsyqYXPtuEwqBrCnzhW-1" source="MrWMUG4uQ_69N9tKeiNV-4" edge="1">
          <mxGeometry x="1" width="100" relative="1" as="geometry">
            <mxPoint x="790" y="385" as="sourcePoint" />
            <mxPoint x="740" y="375" as="targetPoint" />
            <mxPoint as="offset" />
          </mxGeometry>
        </mxCell>
        <mxCell id="MrWMUG4uQ_69N9tKeiNV-8" value="" style="endArrow=classic;startArrow=classic;html=1;strokeWidth=1;entryX=1;entryY=0.5;entryDx=0;entryDy=0;exitX=0;exitY=0.5;exitDx=0;exitDy=0;" parent="VDsyqYXPtuEwqBrCnzhW-1" source="MrWMUG4uQ_69N9tKeiNV-9" target="MrWMUG4uQ_69N9tKeiNV-4" edge="1">
          <mxGeometry width="50" height="50" relative="1" as="geometry">
            <mxPoint x="850" y="455" as="sourcePoint" />
            <mxPoint x="820" y="500" as="targetPoint" />
          </mxGeometry>
        </mxCell>
        <mxCell id="MrWMUG4uQ_69N9tKeiNV-9" value="[Bomb related components]" style="whiteSpace=wrap;html=1;aspect=fixed;" parent="VDsyqYXPtuEwqBrCnzhW-1" vertex="1">
          <mxGeometry x="810" y="415" width="80" height="80" as="geometry" />
        </mxCell>
        <mxCell id="MrWMUG4uQ_69N9tKeiNV-10" value="[Bomb related components]" style="whiteSpace=wrap;html=1;aspect=fixed;" parent="VDsyqYXPtuEwqBrCnzhW-1" vertex="1">
          <mxGeometry x="190" y="415" width="80" height="80" as="geometry" />
        </mxCell>
        <mxCell id="MrWMUG4uQ_69N9tKeiNV-11" value="" style="endArrow=classic;startArrow=classic;html=1;strokeWidth=1;entryX=1;entryY=0.5;entryDx=0;entryDy=0;exitX=0;exitY=0.5;exitDx=0;exitDy=0;" parent="VDsyqYXPtuEwqBrCnzhW-1" source="MrWMUG4uQ_69N9tKeiNV-0" target="MrWMUG4uQ_69N9tKeiNV-10" edge="1">
          <mxGeometry width="50" height="50" relative="1" as="geometry">
            <mxPoint x="660" y="465" as="sourcePoint" />
            <mxPoint x="590" y="465" as="targetPoint" />
          </mxGeometry>
        </mxCell>
        <mxCell id="MrWMUG4uQ_69N9tKeiNV-15" value="Hub" style="rounded=0;whiteSpace=wrap;html=1;fontFamily=Arial;" parent="VDsyqYXPtuEwqBrCnzhW-1" vertex="1">
          <mxGeometry x="500" y="415" width="80" height="80" as="geometry" />
        </mxCell>
        <mxCell id="MrWMUG4uQ_69N9tKeiNV-16" value="Wi-Fi" style="shape=link;html=1;rounded=0;edgeStyle=orthogonalEdgeStyle;dashed=1;labelPosition=center;verticalLabelPosition=top;align=center;verticalAlign=bottom;fontFamily=Arial;" parent="VDsyqYXPtuEwqBrCnzhW-1" source="MrWMUG4uQ_69N9tKeiNV-15" edge="1">
          <mxGeometry x="1" width="100" relative="1" as="geometry">
            <mxPoint x="590" y="385" as="sourcePoint" />
            <mxPoint x="540" y="375" as="targetPoint" />
            <mxPoint as="offset" />
          </mxGeometry>
        </mxCell>
        <mxCell id="MrWMUG4uQ_69N9tKeiNV-18" value="" style="endArrow=classic;startArrow=classic;html=1;strokeWidth=1;" parent="VDsyqYXPtuEwqBrCnzhW-1" edge="1">
          <mxGeometry width="50" height="50" relative="1" as="geometry">
            <mxPoint x="350" y="395" as="sourcePoint" />
            <mxPoint x="530" y="395" as="targetPoint" />
          </mxGeometry>
        </mxCell>
        <mxCell id="MrWMUG4uQ_69N9tKeiNV-19" value="" style="endArrow=classic;startArrow=classic;html=1;strokeWidth=1;" parent="VDsyqYXPtuEwqBrCnzhW-1" edge="1">
          <mxGeometry width="50" height="50" relative="1" as="geometry">
            <mxPoint x="550" y="395" as="sourcePoint" />
            <mxPoint x="730" y="395" as="targetPoint" />
          </mxGeometry>
        </mxCell>
        <mxCell id="MrWMUG4uQ_69N9tKeiNV-20" value="TCP socket connection" style="text;html=1;strokeColor=none;fillColor=none;align=center;verticalAlign=middle;whiteSpace=wrap;rounded=0;" parent="VDsyqYXPtuEwqBrCnzhW-1" vertex="1">
          <mxGeometry x="410" y="355" width="60" height="30" as="geometry" />
        </mxCell>
        <mxCell id="MrWMUG4uQ_69N9tKeiNV-24" value="TCP socket connection" style="text;html=1;strokeColor=none;fillColor=none;align=center;verticalAlign=middle;whiteSpace=wrap;rounded=0;" parent="VDsyqYXPtuEwqBrCnzhW-1" vertex="1">
          <mxGeometry x="610" y="355" width="60" height="30" as="geometry" />
        </mxCell>
      </root>
    </mxGraphModel>
  </diagram>
</mxfile>
